HIERARCHY
ROOT Hips
{
	OFFSET 0.000000 0.000000 0.000000
	CHANNELS 6 Xposition Yposition Zposition Zrotation Yrotation Xrotation 
	JOINT LHipJoint
	{
		OFFSET 0.000000 0.000000 0.000000
		CHANNELS 3 Zrotation Yrotation Xrotation
		JOINT LeftUpLeg
		{
			OFFSET 1.363060 -1.794630 0.839290
			CHANNELS 3 Zrotation Yrotation Xrotation
			JOINT LeftLeg
			{
				OFFSET 2.448110 -6.726130 0.000000
				CHANNELS 3 Zrotation Yrotation Xrotation
				JOINT LeftFoot
				{
					OFFSET 2.562200 -7.039590 0.000000
					CHANNELS 3 Zrotation Yrotation Xrotation
					JOINT LeftToeBase
					{
						OFFSET 0.157640 -0.433110 2.322550
						CHANNELS 3 Zrotation Yrotation Xrotation
						End Site
						{
							OFFSET 0.000000 0.000000 0.000000
						}
					}
				}
			}
		}
	}
	JOINT RHipJoint
	{
		OFFSET 0.000000 0.000000 0.000000
		CHANNELS 3 Zrotation Yrotation Xrotation
		JOINT RightUpLeg
		{
			OFFSET -1.305520 -1.794630 0.839290
			CHANNELS 3 Zrotation Yrotation Xrotation
			JOINT RightLeg
			{
				OFFSET -2.542530 -6.985550 0.000000
				CHANNELS 3 Zrotation Yrotation Xrotation
				JOINT RightFoot
				{
					OFFSET -2.568260 -7.056230 0.000000
					CHANNELS 3 Zrotation Yrotation Xrotation
					JOINT RightToeBase
					{
						OFFSET -0.164730 -0.452590 2.363150
						CHANNELS 3 Zrotation Yrotation Xrotation
						End Site
						{
							OFFSET 0.000000 0.000000 0.000000
						}
					}
				}
			}
		}
	}
	JOINT LowerBack
	{
		OFFSET 0.000000 0.000000 0.000000
		CHANNELS 3 Zrotation Yrotation Xrotation
		JOINT Spine
		{
			OFFSET 0.028270 2.035590 -0.193380
			CHANNELS 3 Zrotation Yrotation Xrotation
			JOINT Spine1
			{
				OFFSET 0.056720 2.048850 -0.042750
				CHANNELS 3 Zrotation Yrotation Xrotation
				JOINT Neck
				{
					OFFSET 0.000000 0.000000 0.000000
					CHANNELS 3 Zrotation Yrotation Xrotation
					JOINT Neck1
					{
						OFFSET -0.054170 1.746240 0.172020
						CHANNELS 3 Zrotation Yrotation Xrotation
						JOINT Head
						{
							OFFSET 0.104070 1.761360 -0.123970
							CHANNELS 3 Zrotation Yrotation Xrotation
							End Site
							{
								OFFSET 0.000000 0.000000 0.000000
							}
						}
					}
				}
				JOINT LeftShoulder
				{
					OFFSET 0.000000 0.000000 0.000000
					CHANNELS 3 Zrotation Yrotation Xrotation
					JOINT LeftArm
					{
						OFFSET 3.362410 1.200890 -0.311210
						CHANNELS 3 Zrotation Yrotation Xrotation
						JOINT LeftForeArm
						{
							OFFSET 4.983000 -0.000000 -0.000000
							CHANNELS 3 Zrotation Yrotation Xrotation
							JOINT LeftHand
							{
								OFFSET 3.483560 -0.000000 -0.000000
								CHANNELS 3 Zrotation Yrotation Xrotation
								JOINT LeftFingerBase
								{
									OFFSET 0.000000 0.000000 0.000000
									CHANNELS 3 Zrotation Yrotation Xrotation
									JOINT LeftHandIndex1
									{
										OFFSET 0.715260 -0.000000 -0.000000
										CHANNELS 3 Zrotation Yrotation Xrotation
										End Site
										{
											OFFSET 0.000000 0.000000 0.000000
										}
									}
								}
								JOINT LThumb
								{
									OFFSET 0.000000 0.000000 0.000000
									CHANNELS 3 Zrotation Yrotation Xrotation
									End Site
									{
										OFFSET 0.000000 0.000000 0.000000
									}
								}
							}
						}
					}
				}
				JOINT RightShoulder
				{
					OFFSET 0.000000 0.000000 0.000000
					CHANNELS 3 Zrotation Yrotation Xrotation
					JOINT RightArm
					{
						OFFSET -3.136600 1.374050 -0.404650
						CHANNELS 3 Zrotation Yrotation Xrotation
						JOINT RightForeArm
						{
							OFFSET -5.241900 -0.000000 -0.000000
							CHANNELS 3 Zrotation Yrotation Xrotation
							JOINT RightHand
							{
								OFFSET -3.444170 -0.000000 -0.000000
								CHANNELS 3 Zrotation Yrotation Xrotation
								JOINT RightFingerBase
								{
									OFFSET 0.000000 0.000000 0.000000
									CHANNELS 3 Zrotation Yrotation Xrotation
									JOINT RightHandIndex1
									{
										OFFSET -0.622530 -0.000000 -0.000000
										CHANNELS 3 Zrotation Yrotation Xrotation
										End Site
										{
											OFFSET 0.000000 0.000000 0.000000
										}
									}
								}
								JOINT RThumb
								{
									OFFSET 0.000000 0.000000 0.000000
									CHANNELS 3 Zrotation Yrotation Xrotation
									End Site
									{
										OFFSET 0.000000 0.000000 0.000000
									}
								}
							}
						}
					}
				}
			}
		}
	}
}
MOTION
Frames: 6
Frame Time: 0.008333
1.852413 17.064628 -1.945127 -24.368926 82.763171 -13.296740 -11.209763 5.139253 0.969526 -13.378824 7.876942 0.572084 -1.033014 1.877003 25.000894 0.195923 -5.639524 17.340867 -2.295401 -0.000000 -74.187501 7.576815 -1.210370 5.875973 13.331022 14.387638 -26.489914 4.252835 0.383819 6.521555 2.113355 13.801437 6.496152 2.783400 0.000000 -29.435900 5.022111 -5.062494 -7.306776 0.763303 -5.839966 -3.859650 -6.141397 -5.898069 1.798239 10.677571 -18.264405 -9.461097 -3.392519 -0.251335 -0.390713 0.000000 0.000000 0.000000 -3.389362 6.080002 -0.011193 -70.404188 -7.249246 7.499991 -2.101050 -48.650046 -0.033865 12.960067 -2.195181 -0.272099 -0.138737 0.186184 0.000000 0.000000 0.000000 0.000000 0.000000 0.000000 0.000000 17.756953 -17.382617 -0.053307 62.332385 -4.991788 -13.247769 2.880722 37.443504 0.003931 -4.878033 3.888116 -0.173688 0.145017 -0.083927 0.000000 0.000000 0.000000 0.000000 0.000000 0.000000 0.000000 
2.023130 17.070447 -1.983242 -30.890810 82.844259 -19.976545 -11.437036 5.111946 0.842222 -12.297285 9.151272 -0.379811 -0.790226 1.939574 27.132534 0.327204 -5.668600 18.870046 -2.518199 0.000000 -73.320299 7.470950 -1.394658 5.885131 14.255288 14.072271 -25.680532 4.377734 0.382742 6.535568 2.121168 13.925742 6.161686 2.743200 -0.000001 -25.047400 5.670996 -4.972847 -7.258857 0.883459 -5.818425 -3.861250 -6.178190 -5.875066 1.801631 10.679176 -18.162655 -9.467988 -3.419509 -0.253984 -0.392956 0.000000 0.000000 0.000000 -3.587618 6.353700 -0.010493 -71.000133 -6.717722 7.471221 -2.109110 -47.860435 -0.032628 13.001219 -2.184421 -0.270858 -0.136115 0.179029 0.000000 0.000000 0.000000 0.000000 0.000000 0.000000 0.000000 17.864566 -17.229383 -0.097748 62.365361 -4.586780 -12.840275 2.888123 37.386770 0.003895 -4.911302 3.907022 -0.175683 0.144749 -0.084224 0.000000 0.000000 0.000000 0.000000 0.000000 0.000000 0.000000 
2.191730 17.076888 -2.019411 -37.251022 82.920476 -26.472997 -11.679215 5.061888 0.708886 -11.262587 10.469673 -1.464386 -0.551335 1.984116 29.389512 0.481929 -5.397811 20.330802 -2.615100 0.000001 -71.726200 7.341034 -1.577516 5.907879 15.100410 13.756192 -24.864096 4.505691 0.405212 6.463931 2.127149 14.033849 5.681225 2.667500 -0.000000 -20.898001 6.218695 -4.888782 -7.229426 0.981006 -5.792903 -3.863118 -6.223784 -5.848008 1.813958 10.716485 -18.066780 -9.482035 -3.450156 -0.256888 -0.397106 0.000000 0.000000 0.000000 -3.734931 6.645528 -0.012203 -71.576848 -6.181897 7.506472 -2.115321 -47.046564 -0.031310 13.031805 -2.160471 -0.267916 -0.133464 0.171559 0.000000 0.000000 0.000000 0.000000 0.000000 0.000000 0.000000 18.031735 -17.078772 -0.145449 62.430113 -4.163762 -12.417399 2.896076 37.303962 0.003901 -4.949069 3.943609 -0.178577 0.144382 -0.084443 0.000000 0.000000 0.000000 0.000000 0.000000 0.000000 0.000000 
2.357979 17.084104 -2.053910 -43.599799 82.986780 -32.933672 -11.925113 4.987967 0.569993 -10.282875 11.794891 -2.671182 -0.321947 2.013980 31.763420 0.658858 -4.720530 21.633254 -2.510700 0.000000 -69.414100 7.192411 -1.753301 5.948361 15.869427 13.462032 -24.034539 4.633779 0.453096 6.278680 2.127037 14.080329 5.107880 2.557100 0.000000 -17.122400 6.683620 -4.805731 -7.219632 1.059064 -5.761036 -3.866395 -6.278729 -5.814448 1.832219 10.783616 -17.971411 -9.500391 -3.484174 -0.260068 -0.402317 0.000000 0.000000 0.000000 -3.839788 6.942137 -0.015560 -72.123679 -5.628721 7.601010 -2.118944 -46.225890 -0.029912 13.047218 -2.122690 -0.262973 -0.130692 0.163815 0.000000 0.000000 0.000000 0.000000 0.000000 0.000000 0.000000 18.246462 -16.924022 -0.193358 62.535477 -3.726818 -12.000879 2.905146 37.187640 0.003948 -4.990329 4.000686 -0.182570 0.143927 -0.084676 0.000000 0.000000 0.000000 0.000000 0.000000 0.000000 0.000000 
2.521683 17.092184 -2.086871 -50.020225 83.041359 -39.439909 -12.163536 4.889130 0.429077 -9.378179 13.076137 -3.981684 -0.107289 2.033740 34.234228 0.855327 -3.551038 22.680418 -2.136500 -0.000000 -66.364000 7.031679 -1.918654 6.006803 16.560044 13.194792 -23.191585 4.757496 0.525946 5.961639 2.117845 14.034649 4.504217 2.420400 -0.000000 -13.839201 7.072834 -4.721992 -7.230363 1.118777 -5.722066 -3.871507 -6.342701 -5.773534 1.855457 10.876634 -17.876816 -9.522730 -3.520926 -0.263481 -0.408465 0.000000 0.000000 0.000000 -3.908265 7.238300 -0.020048 -72.631029 -5.054962 7.755472 -2.119992 -45.408977 -0.028437 13.043775 -2.072031 -0.256130 -0.127778 0.155845 0.000000 0.000000 0.000000 0.000000 0.000000 0.000000 0.000000 18.500725 -16.764861 -0.239669 62.685384 -3.274173 -11.597961 2.915461 37.032597 0.004028 -5.038537 4.077503 -0.187760 0.143425 -0.084970 -0.000000 0.000000 0.000000 0.000000 0.000000 0.000000 0.000000 
2.682564 17.101193 -2.118236 -56.524277 83.087333 -46.005938 -12.383416 4.766967 0.291204 -8.578287 14.257728 -5.366842 0.087966 2.049461 36.768157 1.068321 -1.848854 23.381393 -1.454399 0.000000 -62.687800 6.869099 -2.071491 6.077250 17.162759 12.939635 -22.337385 4.870063 0.619469 5.510123 2.098511 13.884767 3.952467 2.274601 -0.000000 -11.577200 7.380239 -4.637365 -7.258182 1.158569 -5.675043 -3.877629 -6.415354 -5.724222 1.883687 10.994483 -17.783825 -9.549884 -3.559970 -0.267074 -0.415811 0.000000 0.000000 0.000000 -3.942651 7.536443 -0.025186 -73.091199 -4.468446 7.975930 -2.119176 -44.598729 -0.026886 13.018729 -2.010647 -0.247584 -0.124770 0.147696 0.000000 0.000000 0.000000 0.000000 0.000000 0.000000 0.000000 18.792481 -16.601533 -0.283533 62.880694 -2.804582 -11.206056 2.926458 36.838904 0.004121 -5.100541 4.170052 -0.194248 0.142928 -0.085336 -0.000000 0.000000 0.000000 0.000000 0.000000 0.000000 0.000000 
